<?xml version="1.0" encoding="UTF-8"?>
<!DOCTYPE svg PUBLIC "-//W3C//DTD SVG 1.1//EN" "http://www.w3.org/Graphics/SVG/1.1/DTD/svg11.dtd">
<!-- Creator: CorelDRAW -->
<svg xmlns="http://www.w3.org/2000/svg" xml:space="preserve" width="43.3492mm" height="43.3492mm" version="1.1" style="shape-rendering:geometricPrecision; text-rendering:geometricPrecision; image-rendering:optimizeQuality; fill-rule:evenodd; clip-rule:evenodd"
viewBox="0 0 4334.92 4334.92"
 xmlns:xlink="http://www.w3.org/1999/xlink"
 xmlns:xodm="http://www.corel.com/coreldraw/odm/2003">
 <defs>
  <style type="text/css">
   <![CDATA[
    .fil0 {fill:white}
    .fil7 {fill:#262626;fill-rule:nonzero}
    .fil5 {fill:#3FAAE0;fill-rule:nonzero}
    .fil4 {fill:#B8B1AB;fill-rule:nonzero}
    .fil2 {fill:#DD6BBD;fill-rule:nonzero}
    .fil3 {fill:#E5B57C;fill-rule:nonzero}
    .fil1 {fill:#FFC627;fill-rule:nonzero}
    .fil6 {fill:white;fill-rule:nonzero}
   ]]>
  </style>
 </defs>
 <g id="Camada_x0020_1">
  <metadata id="CorelCorpID_0Corel-Layer"/>
  <g id="_3080886490544">
   <rect class="fil0" x="-0.01" y="-0.01" width="4334.93" height="4334.93"/>
   <g>
    <path class="fil1" d="M2835.23 2413.5c-2.22,-2.23 -21.9,-23.8 -24.75,-21.6 1.59,-1.25 2.2,-2.54 2.54,-4.12 6.98,-37.44 0.31,-89.83 -14.61,-125.37 -8.58,-20.32 -23.49,-36.52 -41.26,-49.52 -8.88,-6.35 -18.42,-11.75 -27.94,-17.45 -8.58,-4.79 -17.45,-5.74 -23.8,-13.98 -5.4,-6.98 -7.29,-16.2 -10.46,-23.8 -3.82,-8.26 -7.94,-16.19 -12.39,-23.82 -8.89,-15.23 -19.04,-29.5 -30.79,-42.54 -24.77,-26.97 -62.54,-61.56 -101.26,-45.39 -7.63,-24.44 -15.87,-49.19 -25.39,-72.99 -34.6,-86.98 -74.91,-172.99 -126.01,-251.4 -107.94,-165.37 -259.03,-321.55 -437.42,-410.12 -13.01,-19.04 -30.46,-34.91 -45.71,-52.36 -19.99,-22.85 -38.41,-50.47 -62.52,-68.56 -32.06,-24.77 -73.96,-12.08 -101.26,14.59 -28.9,28.58 -18.4,61.59 6.65,88.23 20.01,21.3 41.92,40.33 60.01,63.19 24.75,30.79 41.59,66.02 65.05,97.45 0.97,1.59 2.23,2.53 3.51,3.48 -6.35,93 19.68,176.5 40.94,266.32 12.7,54.92 21.58,111.09 31.12,166.32 11.42,64.77 23.81,129.51 34.27,194.26 -5.07,-0.95 -10.16,-1.58 -15.23,-1.89 -49.52,-4.12 -65.71,17.14 -93.97,51.1 -19.04,23.5 -39.66,13 -67.61,17.77 -23.8,4.13 -46.01,15.55 -64.44,30.81 -19.68,16.5 -43.48,43.14 -45.06,69.81 -18.1,17.47 -48.58,39.69 -45.07,64.43 0,8.91 8.24,13.67 10.78,21.6 2.86,7.6 1.92,16.51 0.33,24.11 -1.92,10.49 0.64,20.01 3.17,30.81 3.48,16.81 9.21,33.32 15.56,49.52 4.43,11.41 9.83,23.16 17.45,33.01 6.66,8.88 16.51,12.36 18.1,23.8 1.58,7.29 4.12,14.28 7.93,20.63 -4.12,3.17 -7.3,7.63 -10.16,12.05 -44.11,69.84 -96.17,134.27 -154.9,192.37 -19.99,19.68 -41.58,37.46 -62.21,56.51 -13.64,12.69 -23.16,35.24 -30.15,52.05 -1.58,3.81 -2.87,7.93 -4.15,12.05 -12.69,42.22 -6.96,90.79 18.43,126.98 20.63,30.15 51.1,51.1 83.78,66.34 16.51,7.93 33.35,14.91 50.5,21.26 12.36,4.45 31.42,17.79 44.12,9.52 7.6,-5.07 10.77,-14.92 11.1,-23.8 0,-9.21 -2.53,-17.79 -4.45,-26.97 -9.22,-41.59 -4.45,-85.71 13.03,-124.76 2.83,-6.04 6.34,-12.39 12.69,-14.59 10.16,-3.2 19.04,6.66 24.44,15.87 12.05,20.63 20.31,43.48 30.78,64.75 10.47,21.59 24.44,42.22 45.07,54.91 20.32,12.39 48.26,14.92 67.61,0.64 12.08,-9.21 19.37,-23.18 25.41,-37.15 7.6,-17.13 14.92,-34.91 30.79,-45.71 5.07,-3.48 10.77,-5.71 17.15,-6.35 22.21,-2.23 30.14,15.87 41.55,27.95 7.32,7.29 19.37,12.69 28.26,8.88 -0.62,50.16 10.49,96.81 48.57,129.52 85.06,73.31 234.56,68.86 338.69,55.86 99.35,-12.39 227.92,-27.31 265.05,-137.76 8.57,-26.03 13.64,-53.02 16.51,-80.3 4.42,-44.14 1.89,-88.57 -1.59,-132.69 -1.59,-20.62 -2.53,-29.53 16.51,-40.95 12.36,-7.32 30.14,-10.79 36.82,-25.08 10.78,-21.9 4.43,-41.58 -8.9,-57.44 14.61,-11.12 27,-25.09 32.7,-42.87 2.84,-8.24 1.59,-16.51 3.81,-24.11 5.4,-17.78 16.51,-30.48 28.56,-45.09 15.56,-18.1 37.47,-30.45 51.42,-49.52 11.43,-15.53 18.42,-37.44 18.42,-56.81 0.31,-18.73 -14.28,-30.48 -25.72,-41.89zm-208.85 10.47l-17.14 -24.45 0 -51.74 48.87 29.53 -31.73 46.66z"/>
    <path class="fil2" d="M2067.71 2758.85c0,0 26.36,-55.56 85.4,-64.13 0,0 398.68,-40.31 493.56,55.24 0,0 32.07,26.03 13.67,139.35 0,0 -8.57,177.11 -93.96,198.38 0,0 -382.18,87.93 -478.04,2.87 0,0 -62.86,-40.64 -45.38,-189.84 -0.33,0.34 23.49,-126.31 24.75,-141.87z"/>
    <path class="fil3" d="M1896.63 1408.85l18.4 197.43 38.72 -5.71c0,0 40.64,-17.45 31.12,-75.54 -9.52,-58.09 0,-56.17 0,-56.17l106.33 43.48c0,0 45.4,4.76 30.15,-37.77 -15.54,-42.53 -160.61,-144.11 -160.61,-144.11l-56.18 -12.69 3.82 67.61 -11.75 23.47z"/>
    <path class="fil4" d="M2072.47 2733.77c0,0 -64.44,-5.71 -53,-39.05l53 -69.51c0,0 7.62,-38.72 -18.1,-48.88 0,0 -64.44,-50.47 -31.09,-81.25 0,0 384.38,-202.53 642.46,-23.18 0,0 60.62,60.62 -8.9,74.9l-29.84 3.81 6.34 82.87c0,0 81.28,36.18 78.75,58.07 0,0 6.34,58.09 -41.28,45.08 0,0 -154.91,-71.11 -366.62,-63.18 0.65,-0.31 -193,-18.4 -231.72,60.32z"/>
    <path class="fil4" d="M1843.94 1238.08l-15.56 -45.07c0,0 -76.18,-2.53 -69.84,63.16l85.07 93.02 40 69.82 16.81 -33.63 -45.07 -98.09 -11.41 -49.21z"/>
    <path class="fil5" d="M1740.76 2536.33l-87.6 121.25 -159.97 179.35c0,0 -27,131.74 48.88,170.45l116.18 55.57 14.28 -5.09 -2.56 -43.82 -7.29 -65.06 26.03 -76.51c0,0 42.53,-26.97 65.71,30.17 0,0 33.32,108.56 84.12,99.68 0,0 45.37,7.6 57.12,-75.57 0,0 28.89,-42.53 84.11,2.86l48.27 23.19 27.92 -201.24c0,0 -43.48,-24.14 -52.36,-48.27l-23.18 7.63c0,0 -19.68,5.4 -50.47,-33.96 0,0 -36.82,-100.63 -89.18,-115.24 0.61,-0.31 -87.29,-53.31 -100.01,-25.39z"/>
    <path class="fil5" d="M1751.25 2446.82c0,0 59.98,-78.39 118.08,-48.88l57.14 19.04 42.53 58.73 33.02 23.16 2.84 36.82c0,0 4.75,26.03 22.23,39.7 17.46,13.64 0,3.81 0,3.81l28.87 15.53 8.57 20.32 -64.74 75.55 -21.27 13.66 -36.52 -17.78 -31.09 -69.84c0,0 -42.53,-54.92 -73.65,-65.69l-47.6 -20.32 -46.03 -13.67c0,0 -19.99,-42.2 7.62,-70.14z"/>
    <path class="fil5" d="M2645.09 2625.21l-7.29 -61.9 38.72 -1.9c0,0 56.19,-56.19 3.81,-94.91l-45.4 -35.86 25.08 -51.43c0,0 166.34,-16.51 188.86,79.35l-55.22 84.12 -45.38 53.64 -14.61 40.63 -13.64 27.93 -35.57 -15.54 -39.36 -24.13z"/>
    <path class="fil5" d="M1894.4 2372.55l58.09 86.35 58.1 34.9 57.12 -36.19 -27.92 -130.46c0,0 -101.6,49.21 -145.39,45.4z"/>
    <path class="fil6" d="M2038.81 1844.69c0,0 194.91,38.72 242.53,61.87 0,0 -74.9,-177.42 -133,-175.83 0.31,0 -99.03,-19.07 -109.53,113.96z"/>
    <path class="fil6" d="M2324.82 1697.39c0,0 -48.24,30.17 -12.39,123.47l43.18 90.8 47.29 -116.18c0,0 -34.91,-100.63 -78.08,-98.09z"/>
    <path class="fil7" d="M2479.72 2078.31c-0.95,0 -2.53,0.95 -4.45,2.84 -0.61,0.94 -1.59,1.59 -2.2,2.86 -2.56,3.18 -5.74,7.29 -9.22,12.06 -0.94,0.95 -1.58,2.22 -2.53,3.5 -2.22,2.85 -4.45,6.02 -6.68,9.19 -1.58,2.22 -3.47,4.45 -5.07,6.68 -0.63,0.64 -0.94,1.58 -1.58,2.23 -1.28,1.25 -2.23,2.83 -3.51,3.81 -3.81,4.43 -7.6,7.6 -10.47,9.19 -22.85,11.74 -51.1,15.86 -76.48,17.45 -54.92,3.18 -111.12,-11.42 -157.46,-40.31 -23.8,-14.91 -62.83,-42.53 -78.72,-73.62 -2.2,8.24 -4.77,16.81 -10.78,23.16 -2.56,2.54 -6.68,2.54 -9.21,0 -17.15,-16.82 -12.06,-53.33 2.23,-70.15 7.6,-8.9 18.4,-16.84 30.14,-17.78 1.92,-0.31 4.45,0 6.99,0.64 18.73,-5.4 42.84,0.94 56.81,16.19 3.51,3.79 1.28,11.12 -4.43,10.78 -4.14,-0.31 -10.16,-1.89 -13.97,-1.26 -45.07,8.89 -31.43,18.41 -14.92,36.81 12.69,14.3 27.92,26.66 43.81,37.15 34.27,22.86 73.96,37.44 114.58,42.84 32.37,4.45 84.11,7.63 113.01,-8.88 17.14,-10.16 21.57,-39.36 45.06,-29.53 1.92,0.33 1.92,4.15 -0.95,4.15z"/>
    <path class="fil7" d="M2279.76 2183.05c59.03,1.26 120.61,30.48 169.81,-18.73 1.26,-1.28 2.85,0.31 2.23,1.58 -29.53,66.98 -120.94,81.25 -178.39,40.01 -9.21,-6.69 -6.99,-23.19 6.35,-22.86z"/>
    <path class="fil7" d="M2835.56 2413.5c-2.22,-2.23 -21.9,-23.8 -24.77,-21.6 1.59,-1.25 2.23,-2.54 2.54,-4.12 6.98,-37.44 0.33,-89.83 -14.59,-125.37 -8.57,-20.32 -23.5,-36.52 -41.28,-49.52 -8.88,-6.35 -18.4,-11.75 -27.92,-17.45 -8.57,-4.79 -17.45,-5.74 -23.83,-13.98 -5.37,-6.98 -7.29,-16.2 -10.46,-23.8 -3.82,-8.26 -7.94,-16.19 -12.39,-23.82 -8.88,-15.23 -19.03,-29.5 -30.78,-42.54 -24.75,-26.97 -62.52,-61.56 -101.26,-45.39 -7.61,-24.44 -15.87,-49.19 -25.39,-72.99 -34.6,-86.98 -74.91,-172.99 -126.01,-251.4 -107.92,-165.37 -259.01,-321.55 -437.4,-410.12 -13.03,-19.04 -30.48,-34.91 -45.71,-52.36 -20.01,-22.85 -38.41,-50.47 -62.54,-68.56 -32.07,-24.77 -73.96,-12.08 -101.27,14.59 -28.86,28.58 -18.4,61.59 6.69,88.23 19.98,21.3 41.88,40.33 59.98,63.19 24.77,30.79 41.59,66.02 65.07,97.45 0.95,1.59 2.23,2.53 3.49,3.48 -6.35,93 19.68,176.5 40.94,266.32 12.72,54.92 21.6,111.09 31.12,166.32 11.41,64.77 23.8,129.51 34.29,194.26 -5.09,-0.95 -10.16,-1.58 -15.25,-1.89 -49.52,-4.12 -65.69,17.14 -93.95,51.1 -19.06,23.5 -39.68,13 -67.6,17.77 -23.83,4.13 -46.05,15.55 -64.44,30.81 -19.68,16.5 -43.51,43.14 -45.1,69.81 -18.09,17.47 -48.54,39.69 -45.06,64.43 0,8.91 8.27,13.67 10.8,21.6 2.86,7.6 1.89,16.51 0.3,24.11 -1.89,10.49 0.65,20.01 3.18,30.81 3.5,16.81 9.21,33.32 15.56,49.52 4.45,11.41 9.85,23.16 17.45,33.01 6.68,8.88 16.5,12.36 18.1,23.8 1.58,7.29 4.14,14.28 7.93,20.63 -4.12,3.17 -7.3,7.63 -10.16,12.05 -44.12,69.84 -96.17,134.27 -154.88,192.37 -20.01,19.68 -41.59,37.46 -62.24,56.51 -13.64,12.69 -23.16,35.24 -30.14,52.05 -1.59,3.81 -2.87,7.93 -4.12,12.05 -12.7,42.22 -6.99,90.79 18.4,126.98 20.63,30.15 51.1,51.1 83.81,66.34 16.51,7.93 33.32,14.91 50.46,21.26 12.39,4.45 31.43,17.79 44.12,9.52 7.63,-5.07 10.8,-14.92 11.11,-23.8 0,-9.21 -2.54,-17.79 -4.43,-26.97 -9.21,-41.59 -4.45,-85.71 13,-124.76 2.87,-6.04 6.35,-12.39 12.69,-14.59 10.17,-3.2 19.04,6.66 24.45,15.87 12.07,20.63 20.31,43.48 30.78,64.75 10.49,21.59 24.46,42.22 45.09,54.91 20.32,12.39 48.24,14.92 67.61,0.64 12.06,-9.21 19.35,-23.18 25.39,-37.15 7.62,-17.13 14.92,-34.91 30.78,-45.71 5.1,-3.48 10.81,-5.71 17.15,-6.35 22.21,-2.23 30.15,15.87 41.59,27.95 7.29,7.29 19.34,12.69 28.25,8.88 -0.64,50.16 10.46,96.81 48.57,129.52 85.06,73.31 234.57,68.86 338.67,55.86 99.37,-12.39 227.91,-27.31 265.05,-137.76 8.57,-26.03 13.66,-53.02 16.5,-80.3 4.46,-44.14 1.92,-88.57 -1.59,-132.69 -1.58,-20.62 -2.52,-29.53 16.51,-40.95 12.38,-7.32 30.17,-10.79 36.83,-25.08 10.79,-21.9 4.45,-41.58 -8.89,-57.44 14.59,-11.12 26.98,-25.09 32.69,-42.87 2.86,-8.24 1.59,-16.51 3.81,-24.11 5.4,-17.78 16.51,-30.48 28.56,-45.09 15.56,-18.1 37.47,-30.45 51.44,-49.52 11.41,-15.53 18.4,-37.44 18.4,-56.81 0,-18.73 -14.59,-30.48 -25.7,-41.89zm-493.28 -677.07c4.44,4.46 13.66,14.59 17.14,19.05 8.88,11.44 16.19,23.8 22.21,36.82 -11.11,24.44 -19.98,64.11 -28.56,81.59 -5.06,-31.43 -12.05,-50.16 -17.45,-65.08 -5.4,-15.56 -9.52,-31.43 -10.47,-47.93 -1.61,-21.27 1.26,-40 17.13,-24.45zm-455.5 -339.63c0,0.63 -0.31,1.27 -0.31,1.89 -23.19,-48.24 -62.54,-90.47 -98.73,-127.6 -18.09,-18.4 -23.8,-40.61 6.04,-53.94 9.21,-4.15 17.15,-5.1 24.44,-4.15 0,0 -40,16.51 -6.34,54.61 0,0 61.57,77.77 81.25,120.3 -3.17,1.26 -6.35,5.07 -6.35,8.89zm20.32 67.3c0.94,-0.97 1.89,-2.56 1.89,-4.15 0.34,-12.36 -0.95,-24.74 -1.89,-37.13 9.21,7.3 18.73,9.52 26.97,-6.04 10.5,-20.93 -2.23,-52.05 -13.33,-77.75 16.84,7.6 33.95,13.95 51.74,18.71 1.92,0.64 3.18,0.34 4.46,0 39.36,35.88 80.61,69.84 121.56,104.44 4.45,7.62 8.26,15.25 9.21,22.21 8.57,10.49 5.39,17.79 -9.52,22.55 -9.85,-3.82 -19.05,-8.24 -28.57,-12.39 -29.52,-13 -58.73,-26.33 -88.25,-39.36 -9.52,-4.12 -18.41,2.87 -17.13,13.03 4.43,28.25 33.63,140.93 -34.29,120.61 -10.8,-41.26 -17.45,-82.2 -22.85,-124.73zm61.57 249.48c-8.88,-34.59 -21.27,-68.25 -31.73,-102.54 19.04,6.99 39.05,-1.26 51.41,-21.26 19.37,-30.15 10.16,-71.1 2.87,-106.34 23.79,10.17 47.29,20.02 70.78,29.84 16.17,6.68 38.42,20.63 56.5,11.75 14.93,-7.62 16.82,-20.63 12.7,-35.24 16.18,13.67 31.73,27.95 46.99,42.53 41.25,38.75 79.66,80.64 115.53,124.45 -26.66,1.26 -48.89,17.45 -57.14,46.96 -31.11,-10.16 -66.66,-49.19 -95.55,-61.88 -23.8,-10.49 -50.47,-18.73 -76.8,-17.14 -57.45,4.43 -63.18,56.17 -95.56,88.87zm287.89 168.55c-44.11,-17.15 -111.08,-37.78 -156.79,-49.52 -6.68,-2.84 -13.33,-4.76 -20.32,-6.66 8.58,-40.64 44.76,-98.39 103.49,-43.5 17.13,16.2 29.51,40.97 43.17,59.68 9.83,13.97 19.35,27.61 30.45,40zm-524.99 564.69c-6.68,-7.29 -13.67,-14.28 -17.45,-23.16 -6.99,-14.92 -8.27,-31.12 -11.44,-47.3 3.48,3.48 6.98,6.66 11.11,8.89 7.93,3.81 15.55,0.3 18.42,-7.63 11.11,-27.61 -20.32,-38.41 -29.53,-59.35 -5.71,-12.38 9.52,-22.54 16.5,-32.7 0.31,-0.31 0.64,-0.95 0.95,-1.26 2.87,1.26 6.04,1.26 8.91,-0.63 32.37,-20.97 37.44,-61.6 78.07,-75.55 30.48,-10.49 65.08,2.84 94.59,-12.69 31.42,-16.84 28.25,-57.78 63.49,-70.48 12.39,-4.46 23.8,-4.46 34.91,-2.54 16.2,-2.22 55.56,26.98 55.56,26.98 10.15,6.34 20.31,12.38 30.78,16.81 6.99,2.87 11.44,-6.35 9.21,-11.74 -10.16,-21.27 -27.61,-38.08 -47.63,-50.78 -12.38,-68.89 -27.6,-137.11 -40.94,-206l-4.76 -25.39c61.26,11.11 120.95,29.2 180.29,47.93 63.19,19.68 127.93,37.44 178.09,82.2 5.4,4.76 15.53,5.09 19.04,-2.54 20.95,-43.47 42.53,-86.98 57.45,-132.69 23.49,40.95 44.12,83.49 62.21,127.3 20.32,50.46 87.6,220.92 87.6,220.92 22.24,44.12 -15.53,-96.17 -28.56,-143.15 41.89,4.12 70.47,26.66 93.97,63.79 18.4,29.84 20.94,66.67 40.31,95.56 5.4,8.55 20.62,6.01 19.99,-5.09 -0.31,-4.12 -0.95,-8.24 -1.26,-12.39 9.52,7.33 19.98,12.39 30.45,20.02 20.96,16.17 30.48,35.85 36.19,60.62 6.37,26.03 1.58,59.04 13.33,83.48 -8.88,-5.07 -18.1,-9.83 -27.92,-13.33 -5.09,-1.9 -11.11,-1.59 -14.92,-5.4 -3.51,-3.82 -4.12,-13.01 -5.09,-17.76 -1.89,-12.39 -2.2,-25.08 -8.55,-36.52 -2.23,-3.48 -7.96,-5.07 -11.13,-1.89 -3.18,3.17 -0.95,8.87 -0.31,12.38 1.9,11.11 4.46,23.8 0.31,34.9 -2.84,7.94 -11.1,4.46 -19.35,5.41 -3.5,0.63 -18.73,5.71 -20.63,4.75 -14.91,-9.51 -31.42,-13.33 -45.39,-25.38 -9.85,-8.9 -17.15,-19.07 -26.36,-28.25 -6.02,-6.04 -13.64,-11.14 -20.63,-16.51 -14.92,7.29 -7.93,20.93 -4.12,32.04 3.17,9.55 5.71,18.73 5.71,28.89 0.33,4.76 -1.59,52.39 0.94,53.34 -58.7,-19.38 -126.65,-25.4 -176.47,-30.15 -62.54,-5.73 -121.59,3.79 -182.51,16.5 -26.98,5.72 -53.98,11.42 -80.64,18.71 -23.16,6.04 -48.88,19.37 -71.4,21.6 -3.82,0 -7.63,-26.36 -10.49,-57.78 -2.54,-24.11 -3.48,-48.88 -4.12,-72.99 6.04,-4.79 13.02,-7.96 20.32,-7.96 6.34,0 6.01,-9.18 0,-9.83 -7.3,-0.64 -14.28,0 -20.96,1.59 -19.99,5.71 -46.66,24.14 -46.66,24.14 -11.1,8.24 -22.54,16.81 -33.95,22.85 -29.53,15.86 -59.04,21.9 -91.75,14.28 -17.78,-4.12 -33.01,-10.47 -50.8,-12.7 0,-10.15 -0.61,-20.01 2.87,-30.17 4.12,-12.69 10.8,-26.97 18.74,-37.44 2.22,-3.17 -1.59,-7.93 -5.1,-6.68 -17.76,7.32 -29.84,17.79 -37.13,36.19 -7.3,17.14 -10.47,39.05 -1.59,55.86 1.28,2.23 2.87,3.51 4.12,4.46 3.81,4.75 8.58,9.82 13.33,13.64 -17.76,3.5 -36.49,11.44 -56.48,21.26 -23.82,10.5 -41.91,32.07 -51.74,56.51zm186.63 165.7c0,-0.34 0,-0.64 -0.3,-1.28 -1.59,-3.48 -2.87,-6.99 -3.82,-9.52 -0.33,-0.64 -0.94,-1.59 -1.27,-2.53 0,0 0,0 -0.31,-0.31 -13.03,-24.14 -33.66,-44.14 -57.78,-56.84 0,-0.31 -0.31,-0.31 -0.31,-0.31 -16.51,-8.87 -34.3,-14.27 -52.39,-15.87 -1.25,0 -2.53,-0.32 -3.48,-0.32 -8.26,-0.31 -16.5,-0.31 -24.13,-2.23 -2.84,-0.31 -5.4,-1.26 -7.93,-2.84 -2.54,-0.95 -4.46,-2.53 -6.35,-3.82 -2.23,-1.58 -3.81,-3.48 -5.07,-5.7 -0.97,-1.28 -1.58,-2.54 -1.92,-3.51 -4.12,-11.41 1.92,-25.38 8.57,-36.49 0.65,-0.64 0.95,-0.95 1.29,-1.59 7.93,-12.69 17.12,-24.77 28.25,-34.93 0,-0.3 0,-0.3 0,-0.3 6.99,-6.35 14.28,-11.75 22.52,-16.51 9.85,-5.4 20.65,-9.52 31.76,-10.47 3.48,-0.64 7.29,-0.94 10.77,-0.94 10.16,0 20.02,2.2 28.89,6.34 6.69,3.48 12.39,7.6 17.79,12.36 11.75,10.49 21.26,24.13 31.09,37.16 3.17,3.78 6.68,8.24 10.16,12.36 12.08,13.02 26.36,23.83 43.48,25.72 0.64,0 1.59,0 2.22,0.31 0,0 0,0 -0.3,0.33 -1.92,5.07 -3.17,10.46 -3.51,16.51l0 1.58c-1.25,12.7 1.29,26.03 7.32,37.44 3.49,6.38 7.61,11.75 12.7,17.15 0.3,0 0.3,0.33 0.64,0.64 8.57,8.26 19.04,14.27 30.45,17.14 1.92,0.31 3.5,0.95 5.4,1.25l0.33 0c0,0 0,0.34 0.31,0.34 0.64,0 1.28,0.31 1.92,0.64 4.75,1.25 9.52,3.48 11.72,6.65 1.28,1.28 1.92,2.87 2.23,4.45 0.63,3.18 -0.31,5.71 -1.9,8.89 -1.58,3.17 -3.81,5.71 -6.35,8.26 -3.81,3.79 -7.62,7.93 -11.43,11.75 0,0 0,0 -0.31,0 -10.8,11.11 -22.22,22.85 -33.35,34.27 -3.48,3.5 -6.65,7.29 -10.13,10.46 -5.09,5.1 -10.16,9.85 -16.84,13.03 -2.53,1.58 -5.06,2.53 -7.63,2.86 -0.3,0 -0.3,0 -0.3,0 -5.71,1.26 -10.8,-0.64 -15.87,-4.14 -3.51,-2.53 -6.35,-6.02 -9.21,-10.16 -0.31,0 -0.31,0 -0.31,0 -3.17,-4.76 -6.04,-10.14 -8.9,-16.17 0.33,-1.29 -14.9,-40.95 -18.41,-51.11zm74.6 -190.45c-4.45,9.83 -12.38,21.27 -16.81,32.68 -10.16,-10.16 -20.32,-20.62 -29.84,-33.01 -5.73,-7.93 -11.74,-15.53 -18.43,-22.22 10.16,-0.31 20.33,-1.58 29.85,-4.12 24.12,-7.29 46.65,-22.21 64.43,-39.69l1.28 -1.25c0.62,3.81 1.26,7.6 1.89,11.42 -15.86,15.25 -23.8,36.82 -32.37,56.19zm34.6 15.87c2.54,-4.46 4.46,-9.22 6.66,-13.97 0.97,5.09 1.58,10.16 1.92,15.25 1.58,17.12 -2.23,16.17 -15.87,26.63 -4.46,3.51 -8.91,7.63 -12.72,11.44 8.91,-10.79 13.97,-27.6 20.01,-39.35zm24.44 104.74c-9.21,-9.82 -12.69,-26.66 -4.76,-37.77 1.59,-2.23 3.48,-4.12 5.71,-6.35 10.16,-10.16 26.35,-15.56 40.3,-20.63 2.23,-0.94 3.81,-1.91 6.04,-2.53 29.54,-12.07 59.99,-20.65 91.11,-28.25 65.72,-16.2 133.3,-31.76 201.55,-30.48 53.64,0.95 107.3,7.3 159.66,19.68 39.7,9.52 87.63,19.68 110.79,57.45 4.45,7.94 7.93,16.81 6.03,25.39 -7.93,35.55 -61.26,-5.71 -77.12,-13 -38.41,-17.48 -78.11,-33.65 -119.67,-41.92 -48.57,-9.19 -98.73,-12.06 -148.25,-9.19 -46.34,3.18 -92.69,9.19 -137.45,22.52 -22.52,6.99 -44.42,16.2 -64.43,28.59 -9.83,6.01 -20.3,12.36 -26.98,21.9 -3.81,6.02 -7.62,12.36 -13,17.13 -9.54,7.92 -21.29,6.03 -29.53,-2.54zm585.96 -157.13c-5.71,7.93 -10.16,16.84 -13.64,25.72 -2.56,-12.06 -4.15,-36.49 -5.09,-47.62 7.62,6.37 16.19,11.44 24.43,15.25 -2.2,1.89 -4.12,4.12 -5.7,6.65zm-969.08 500.59c-10.16,26.97 -19.04,42.53 -18.73,71.42 0.63,30.79 16.81,66.64 18.39,85.37 0.65,7.3 -6.34,13.03 -13.33,10.5 -35.21,-11.13 -69.5,-26.67 -97.76,-50.8 -30.47,-25.72 -53,-61.91 -55.86,-101.27 -3.48,-45.7 19.04,-89.51 48.88,-124.42 29.83,-34.6 66.36,-62.54 98.73,-94.59 42.2,-41.58 76.8,-90.79 101.88,-144.12 10.16,9.54 22.23,16.83 33.98,21.9 1.59,0.97 3.18,1.28 4.43,1.92 -0.95,1.9 -1.9,3.48 -2.54,5.4 -38.72,106.64 -78.71,212.66 -118.07,318.69zm372.96 -104.13c-6.65,42.86 -20.63,96.2 -25.38,148.55 -5.1,-5.39 -11.75,-9.51 -18.1,-12.99 -18.09,-9.86 -36.51,-20.02 -57.14,-22.86 -20.32,-2.86 -43.18,3.48 -54.59,20.63 -14.28,20.96 -8.57,53.33 -32.06,66.97 -11.11,6.34 -25.08,5.4 -36.83,-0.31 -20.32,-10.49 -30.48,-31.12 -37.46,-51.74 -6.02,-17.15 -10.47,-35.55 -20.3,-50.8 -9.85,-15.54 -26.02,-28.56 -44.12,-28.25 42.2,-86.96 77.44,-177.42 104.75,-269.81 0.95,-3.17 1.58,-6.01 2.22,-9.19 2.2,0.61 4.12,1.26 6.66,1.9 25.71,7.29 47.93,26.97 61.9,49.2 6.65,10.47 13.64,21.28 20.93,31.43 0.65,0.95 1.29,1.89 1.92,2.84 -20.95,43.18 -14.28,97.15 -11.1,142.86 0.31,5.39 8.57,5.39 8.57,0 -0.33,-39.37 13,-76.5 21.27,-113.96 1.89,3.17 3.48,5.7 5.06,8.88 5.71,10.15 11.75,23.82 23.81,27.61 8.56,2.56 17.78,2.87 26.66,1.92 1.58,-0.33 20.65,-5.09 20.65,-6.99 3.48,5.71 8.55,10.8 15.23,16.81 14.92,13.03 20.96,27.62 17.45,47.3zm602.16 59.37c-0.34,19.04 -0.64,38.41 -1.92,57.76 -2.54,33.98 -9.19,67.3 -17.76,100.01 -20.32,78.08 -77.77,75.85 -146.02,87.29 -55.87,9.82 -111.74,17.12 -167.91,17.12 -53.97,-0.31 -109.53,-6.02 -160.93,-23.8 -14.62,-4.76 -26.98,-10.8 -37.47,-18.4 -49.52,-57.79 93.02,-64.13 119.99,-65.41 54.59,-3.48 110.46,-2.53 164.42,5.09 48.58,6.65 93,23.5 139.68,35.54 8.88,2.54 14.9,-10.46 6.35,-14.58 -69.2,-34.29 -154.29,-51.11 -230.45,-59.68 -64.77,-7.63 -155.88,-17.15 -217.14,12.36 -10.47,5.1 -18.71,11.44 -25.06,18.43 -1.58,-9.85 -2.22,-20.32 -1.58,-31.76 2.2,-50.13 9.52,-99.99 16.82,-149.81 3.48,-24.77 -1.29,-48.88 20.62,-64.75 33.65,-25.08 85.7,-33.01 126.65,-37.46 47.63,-5.71 96.2,-4.12 143.79,-0.95 50.47,3.17 100.63,5.07 150.15,14.29 26.33,5.06 57.76,11.41 82.22,21.9 47.29,19.34 35.86,53.95 35.55,96.81zm24.43 -127.6c-17.78,10.47 -43.17,-0.97 -59.98,-8.27 -23.18,-9.52 -47.63,-17.14 -71.42,-23.16 -52.39,-13.02 -106.97,-20.01 -160.95,-23.82 -86.01,-6.02 -195.21,-10.13 -276.15,32.71 -11.1,5.71 -21.9,12.69 -31.42,20.62 -25.39,5.4 -33.97,-12.39 -26.03,-29.51 6.35,-3.5 13,-6.03 18.4,-12.38 2.56,-2.87 4.15,-5.4 5.73,-8.26 17.12,-7.6 50.13,-20.63 62.52,-30.79 6.04,-5.07 7.29,-9.52 -0.64,-12.05 -15.56,-4.46 -24.44,0.31 -25.08,-18.41 -0.3,-9.85 2.87,-16.83 9.85,-23.82 10.17,-9.52 22.86,-17.15 33.97,-24.44 22.54,-14.59 46.03,-25.69 71.42,-33.01 44.12,-12.39 89.18,-18.4 134.58,-19.04 63.8,0 126.01,12.69 186.63,30.79 20.33,6.04 54.93,9.85 65.72,30.16 8.58,15.54 4.46,35.55 7.63,51.73 -31.11,-10.78 -63.49,-19.99 -95.86,-26.34 -30.48,-6.04 -56.51,-7.63 -87.63,-8.26 -19.98,-0.62 -44.75,1.28 -84.11,4.45 -41.9,3.48 -159.33,35.24 48.26,30.48 43.48,-0.98 86.65,2.22 129.49,10.15 30.48,5.72 60.96,13.64 90.16,24.45 2.53,0.94 4.45,1.89 6.99,2.84 20.95,8.57 97.75,34.6 47.92,63.18zm163.15 -248.87c-6.66,18.09 -22.21,33.65 -36.5,46.34 -14.27,13.34 -25.72,26.36 -36.51,42.87 -10.14,16.18 -17.12,30.45 -23.16,48.55 -6.35,20.32 -17.15,35.57 -28.26,53.66 -6.03,-4.14 -12.04,-7.93 -18.09,-10.8 -10.16,-4.76 -19.98,-9.85 -30.48,-13.97 -3.48,-20.63 -6.65,-40.95 -10.15,-61.26 18.08,5.7 36.18,5.39 52.07,-11.75 23.47,-25.39 11.11,-64.11 -6.99,-88.24 -12.07,-16.51 -27.94,-29.84 -46.34,-40.95 5.07,-5.39 6.35,-14.28 10.47,-21.57 2.53,-4.76 5.7,-8.9 8.57,-13.67 0.95,-1.25 1.59,-3.17 2.53,-4.76 0.34,0 0.65,0.34 1.28,0.34 31.43,3.48 60.32,-1.92 91.42,9.19 17.45,6.34 32.37,17.14 48.23,27 13.67,7.93 27.94,21.57 21.91,39.02z"/>
   </g>
  </g>
 </g>
</svg>
