<?xml version="1.0" encoding="UTF-8"?>
<!DOCTYPE svg PUBLIC "-//W3C//DTD SVG 1.1//EN" "http://www.w3.org/Graphics/SVG/1.1/DTD/svg11.dtd">
<!-- Creator: CorelDRAW -->
<svg xmlns="http://www.w3.org/2000/svg" xml:space="preserve" width="43.3493mm" height="43.3493mm" version="1.1" style="shape-rendering:geometricPrecision; text-rendering:geometricPrecision; image-rendering:optimizeQuality; fill-rule:evenodd; clip-rule:evenodd"
viewBox="0 0 4334.92 4334.92"
 xmlns:xlink="http://www.w3.org/1999/xlink"
 xmlns:xodm="http://www.corel.com/coreldraw/odm/2003">
 <defs>
  <style type="text/css">
   <![CDATA[
    .fil0 {fill:white}
    .fil1 {fill:url(#id0)}
   ]]>
  </style>
  <linearGradient id="id0" gradientUnits="userSpaceOnUse" x1="762.29" y1="2063.67" x2="3693.03" y2="2503.85">
   <stop offset="0" style="stop-opacity:1; stop-color:#5D8BD6"/>
   <stop offset="0.458824" style="stop-opacity:1; stop-color:#67D1C3"/>
   <stop offset="1" style="stop-opacity:1; stop-color:#E82ECF"/>
  </linearGradient>
 </defs>
 <g id="Camada_x0020_1">
  <metadata id="CorelCorpID_0Corel-Layer"/>
  <g id="_2773894961488">
   <rect class="fil0" x="-0" y="-0" width="4334.92" height="4334.92"/>
   <path class="fil1" d="M1563.67 1437.06c455.92,0 825.5,369.58 825.5,825.5 0,141.03 -35.38,273.79 -97.74,389.91 232.89,-124.82 449.54,-164.94 622.68,-140.14l0 -711.2 93.13 25.4 -8.47 795.86c-263.96,-52 -538.29,21.27 -820.68,191.43 -151.12,168.33 -370.39,274.24 -614.42,274.24 -455.92,0 -825.5,-369.58 -825.5,-825.5 0,-455.92 369.58,-825.5 825.5,-825.5zm1087.97 76.2l33.87 -67.73c213.82,-22.36 402.25,56.36 575.73,194.73 -202.97,-122.26 -406.1,-196.4 -609.6,-127zm-785 486.55l-220.69 233.94c-1.96,2.08 -4.13,3.89 -6.45,5.43 2.99,8.66 4.61,17.95 4.61,27.62 0,46.76 -37.91,84.67 -84.67,84.67 -46.76,0 -84.67,-37.91 -84.67,-84.67 0,-7.98 1.11,-15.72 3.17,-23.04l-189.99 -144.76c-12.86,-9.8 -16.01,-28.83 -6.98,-42.29l0.01 -0.01c9.02,-13.46 26.93,-16.45 39.79,-6.65l191.86 146.19c13.41,-8.91 29.5,-14.11 46.81,-14.11 10.61,0 20.76,1.96 30.12,5.52l0.51 -0.56 220.69 -233.94c13.7,-14.53 37.49,-15.93 52.86,-3.1l0.01 0.01c15.37,12.84 16.71,35.22 3.01,49.75zm-307.2 233.12c18.71,0 33.87,15.16 33.87,33.87 0,18.71 -15.16,33.87 -33.87,33.87 -18.71,0 -33.87,-15.16 -33.87,-33.87 0,-2.97 0.38,-5.86 1.1,-8.6 3.13,-2.02 5.92,-4.71 8.16,-8.06l0.01 -0.01c2.19,-3.26 3.66,-6.84 4.45,-10.55 5.63,-4.17 12.6,-6.65 20.15,-6.65zm-398.41 286.3l-76.99 44.45c-13.11,7.57 -30.02,3.04 -37.58,-10.07 -7.58,-13.12 -3.05,-30.03 10.06,-37.6l76.99 -44.45c13.12,-7.57 30.03,-3.04 37.6,10.08 7.57,13.11 3.04,30.02 -10.08,37.59zm905.56 -522.82l-76.99 44.45c-13.12,7.57 -30.03,3.04 -37.59,-10.07 -7.58,-13.12 -3.05,-30.03 10.07,-37.6l76.99 -44.45c13.11,-7.57 30.02,-3.04 37.59,10.08 7.57,13.11 3.04,30.02 -10.07,37.59zm-242.02 660.32l44.45 76.99c7.57,13.11 3.04,30.02 -10.08,37.6 -13.1,7.56 -30.01,3.03 -37.58,-10.08l-44.45 -76.99c-7.57,-13.11 -3.04,-30.02 10.06,-37.59 13.12,-7.57 30.03,-3.04 37.6,10.07zm-522.82 -905.55l44.45 76.99c7.57,13.11 3.04,30.02 -10.08,37.59 -13.1,7.57 -30.01,3.04 -37.58,-10.07l-44.45 -76.99c-7.57,-13.11 -3.04,-30.02 10.06,-37.59 13.12,-7.58 30.03,-3.04 37.6,10.07zm-217.7 197.56l76.99 44.45c13.11,7.57 17.64,24.48 10.07,37.6 -7.57,13.11 -24.48,17.64 -37.59,10.07l-76.99 -44.45c-13.11,-7.57 -17.64,-24.48 -10.08,-37.59 7.58,-13.12 24.49,-17.65 37.6,-10.08zm905.55 522.82l76.99 44.45c13.11,7.57 17.64,24.48 10.07,37.6 -7.57,13.11 -24.48,17.64 -37.59,10.07l-76.99 -44.45c-13.11,-7.57 -17.64,-24.48 -10.08,-37.59 7.58,-13.12 24.49,-17.65 37.6,-10.08zm-120.57 -692.86l-44.45 76.99c-7.57,13.11 -24.48,17.64 -37.6,10.07 -13.11,-7.57 -17.64,-24.48 -10.07,-37.59l44.45 -76.99c7.57,-13.11 24.48,-17.64 37.59,-10.08 13.12,7.58 17.65,24.49 10.08,37.6zm-522.82 905.55l-44.45 76.99c-7.57,13.11 -24.48,17.64 -37.6,10.07 -13.11,-7.57 -17.64,-24.48 -10.07,-37.59l44.45 -76.99c7.57,-13.11 24.48,-17.64 37.59,-10.08 13.12,7.58 17.65,24.49 10.08,37.6zm-351.92 -455.56l88.9 0c15.14,0 27.52,12.38 27.52,27.53 0,15.13 -12.38,27.51 -27.52,27.51l-88.9 0c-15.14,0 -27.52,-12.38 -27.52,-27.51 0,-15.15 12.38,-27.53 27.52,-27.53zm1045.64 0l88.9 0c15.14,0 27.52,12.38 27.52,27.53 0,15.13 -12.38,27.51 -27.52,27.51l-88.9 0c-15.14,0 -27.52,-12.38 -27.52,-27.51 0,-15.15 12.38,-27.53 27.52,-27.53zm-450.85 -539.75l0 88.9c0,15.14 -12.38,27.52 -27.53,27.52 -15.13,0 -27.51,-12.38 -27.51,-27.52l0 -88.9c0,-15.14 12.38,-27.52 27.51,-27.52 15.15,0 27.53,12.38 27.53,27.52zm0 1045.64l0 88.9c0,15.14 -12.38,27.52 -27.53,27.52 -15.13,0 -27.51,-12.38 -27.51,-27.52l0 -88.9c0,-15.14 12.38,-27.52 27.51,-27.52 15.15,0 27.53,12.38 27.53,27.52zm766.23 -831.85l-50.8 -93.14c74.98,-75.47 159.87,-125.66 254,-152.4l59.26 -101.6 -220.13 -194.73c-12.7,-21.17 3.66,-49.21 25.4,-50.8 88.08,-9.79 656.57,-94.35 694.27,-50.8l457.2 389.47c54.59,60.95 4.23,63.5 -101.6,84.66l0 180.14c37.45,9.44 38.1,69.63 13.58,92.09l20.28 125.71c-40.63,26.14 -78.13,29.19 -110.06,-8.47l25.4 -118.53c-22.8,-32.72 -25.4,-76.2 12.7,-88.9l4.23 -173.57 -135.47 16.93 0 194.74c-254,-270.94 -812.8,-287.87 -948.26,-50.8zm-152.4 990.6c311.92,-114.22 649.98,-133.21 1041.4,42.33 25.4,8.47 59.26,0 59.26,-59.27l0 -821.26 -93.13 -110.07 0 872.07 -59.27 -16.94 0 -905.93 -84.66 -42.33 -8.47 846.66c-314.85,-74.32 -600.84,-13.8 -855.13,194.74zm-639.24 -1278.47c357.71,0 647.7,289.99 647.7,647.7 0,357.71 -289.99,647.7 -647.7,647.7 -357.71,0 -647.7,-289.99 -647.7,-647.7 0,-357.71 289.99,-647.7 647.7,-647.7z"/>
  </g>
 </g>
</svg>
