<?xml version="1.0" standalone="no"?>
<!DOCTYPE svg PUBLIC "-//W3C//DTD SVG 20010904//EN"
 "http://www.w3.org/TR/2001/REC-SVG-20010904/DTD/svg10.dtd">
<svg version="1.0" xmlns="http://www.w3.org/2000/svg"
 width="128.000000pt" height="128.000000pt" viewBox="0 0 128.000000 128.000000"
 preserveAspectRatio="xMidYMid meet">

<g transform="translate(0.000000,128.000000) scale(0.100000,-0.100000)"
fill="#000000" stroke="none">
<path d="M370 778 c-11 -18 -20 -42 -20 -53 1 -12 6 -5 14 18 8 20 19 44 26
52 7 8 10 15 6 15 -3 0 -15 -15 -26 -32z"/>
<path d="M331 691 c-2 -35 35 -106 66 -126 15 -10 22 -12 18 -4 -6 8 -4 11 6
7 42 -18 49 -17 16 2 -21 11 -46 35 -56 51 -13 21 -21 26 -25 17 -3 -7 -4 3
-1 22 4 26 3 30 -4 15 -8 -18 -9 -17 -13 10 -4 25 -5 26 -7 6z"/>
<path d="M838 617 c-3 -19 -2 -25 4 -19 6 6 8 18 6 28 -3 14 -5 12 -10 -9z"/>
<path d="M604 564 c-18 -14 -18 -15 4 -4 12 6 22 13 22 15 0 8 -5 6 -26 -11z"/>
<path d="M251 413 c1 -27 3 -40 6 -31 2 9 12 19 21 21 15 4 15 5 0 6 -11 1
-18 9 -18 22 0 15 5 20 23 17 14 -2 21 -9 20 -22 -1 -13 2 -15 10 -7 15 15
-10 41 -39 41 -22 0 -24 -4 -23 -47z"/>
<path d="M341 401 c1 -28 3 -30 6 -11 3 14 9 30 14 36 5 7 3 11 -6 11 -11 0
-15 -11 -14 -36z"/>
<path d="M391 415 c-1 -22 16 -45 33 -45 5 0 3 6 -6 13 -9 6 -18 21 -21 32 -5
20 -5 20 -6 0z"/>
<path d="M871 404 c0 -11 3 -14 6 -6 3 7 2 16 -1 19 -3 4 -6 -2 -5 -13z"/>
</g>
</svg>
